# xmcd
#
# Track frame offsets: 
#        150
#        11207
#        35676
#        55396
#        82061
#        104486
#        120681
#        141230
#        172657
#        188582
#        216053
#        239335
#        267087
#        283732
#        308372
#
# Disc length: 4260 seconds
#
# Revision: 0
# Processed by: cddbd v1.4PL0 Copyright (c) Steve Scherf et al.
# Submitted via: ExactAudioCopy v0.90b4
#
DISCID=d210a20f
DTITLE=The Uptown Band - Out of the Blues
DYEAR=1900
DGENRE=Blues
TTITLE0=Gimmie That Wine
TTITLE1=Wang Dang Doodle
TTITLE2=Let it Roll
TTITLE3=Damn Your Eyes
TTITLE4=Green Back Dollar Bill
TTITLE5=634-5789
TTITLE6=Love Lights
TTITLE7=God Bless the Child
TTITLE8=T-Bone Shuffle
TTITLE9=Mustang Sally
TTITLE10=One Way Out
TTITLE11=Rainy Night in Georgia
TTITLE12=The Walls Come Tumblin' Down
TTITLE13=Flat Broke
TTITLE14=Over and Out
EXTD=
EXTT0=
EXTT1=
EXTT2=
EXTT3=
EXTT4=
EXTT5=
EXTT6=
EXTT7=
EXTT8=
EXTT9=
EXTT10=
EXTT11=
EXTT12=
EXTT13=
EXTT14=
PLAYORDER=
